<?xml version="1.0" encoding="utf-8"?>
<!-- Generator: Adobe Illustrator 24.2.0, SVG Export Plug-In . SVG Version: 6.00 Build 0)  -->
<svg version="1.1" id="Layer_1" xmlns="http://www.w3.org/2000/svg" xmlns:xlink="http://www.w3.org/1999/xlink" x="0px" y="0px"
	 viewBox="0 0 512 512" style="enable-background:new 0 0 512 512;" xml:space="preserve">
<style type="text/css">
	.st0{fill:#FFA726;}
</style>
<g transform="translate(0,-1)">
	<path class="st0" d="M119.4,36c-16.1,0-29.2,17.2-29.2,38.5v363c0,21.3,13.1,38.5,29.2,38.5h275.3c16.1,0,29.2-17.2,29.2-38.5v-363
		c0-21.3-13.1-38.5-29.2-38.5H119.4z M222.4,314.2l-32.6-109.1l56.6-13.6l8.1,47.1c12.4-8.4,21.5-16.4,27.4-23.8
		c5.9-7.4,8.8-16.2,8.8-26.5c0-12.1-4.7-21.6-14-28.5c-9.4-6.9-22.9-10.4-40.8-10.4c-13,0-26.6,2.1-41,6.3
		c-14.3,4.2-27.4,9.7-39.2,16.3v-51.6c9.4-6.3,22.8-12.4,40.3-18.1c17.5-5.7,37.7-8.6,60.7-8.6c16.9,0,31.7,2.2,44.4,6.6
		c12.7,4.4,23.2,10.3,31.7,17.7c8.4,7.4,14.8,16,19,25.8c4.2,9.8,6.3,20.1,6.3,31c0,20.2-7.9,39.6-23.5,58.2
		c-15.7,18.6-39.7,36-72,52.3l5,29H222.4z M246.9,418.3c-10.6,0-19.6-3.6-27.2-10.9c-7.6-7.2-11.3-16.3-11.3-27.2
		c0-10.6,3.8-19.7,11.3-27.4c7.5-7.7,16.6-11.5,27.2-11.5c11.2,0,20.6,3.9,28.3,11.5c7.7,7.7,11.5,16.8,11.5,27.4
		c0,10.9-3.9,19.9-11.5,27.2C267.5,414.7,258.1,418.3,246.9,418.3z"/>
</g>
</svg>
