<?xml version="1.0" encoding="utf-8"?>
<svg version="1.1" id="Layer_1" xmlns="http://www.w3.org/2000/svg" x="0px" y="0px"
	 viewBox="0 0 474.9 385.4" style="enable-background:new 0 0 474.9 385.4;" xml:space="preserve">
<g fill="white">
	<path d="M153.7,7.7l-14.2,12.2c37.3,43.5,67.2,93.8,88.2,152.5l6.9,19.3l10.1-17.9C274.3,121.2,288.1,63.2,284.5,0l-18.7,1
		c2.9,52.6-6.7,100.8-28.1,145.4C216.6,93.9,188.2,47.9,153.7,7.7L153.7,7.7z M0,78.8c38.6,102.6,124.6,157.8,226.9,147.3
		C187.9,123.1,103.1,67.4,0,78.8z M367.1,92.2c-54.2,21.9-97.4,67.5-122.9,131.9C347,236.2,434.4,182,474.9,79.3
		C436,74.4,399.6,79,367.1,92.2L367.1,92.2z M161.9,256.8c-48.4,20.2-75,65.3-73.9,128.4c88.7-0.3,142.1-53,140.3-140.4
		C203.1,244.7,180.8,248.9,161.9,256.8L161.9,256.8z M245.2,244.1c-4.9,88.4,47.8,141.4,138.6,141.4
		C388.6,296.7,336.9,243.3,245.2,244.1L245.2,244.1z"/>
</g>
</svg>
