<?xml version="1.0" encoding="utf-8"?>
<svg version="1.1" id="Layer_1" xmlns="http://www.w3.org/2000/svg" x="0px" y="0px"
	 viewBox="0 0 290.3 561.7" style="enable-background:new 0 0 290.3 561.7;" xml:space="preserve">
<g fill="white">
	<path d="M65.5,471.6c41.5-26.5,4.5-55.1,13.4-102.1C48.2,422.4,76.7,438.2,65.5,471.6L65.5,471.6z M9,328.3
		c49.5-12.5,19.7-43.4,59.7-97.1C9.8,259.5,30.2,293.6,9,328.3L9,328.3z M118.9,449.7c6.3,10.7,13.7,21.6,22.3,32.8
		c-12.1-44.1-9.9-61.4-5.5-95.3c21.3,59.3,43.2,106.7,128.6,143.3C194,454.9,173,389,170.3,322.6c8,10.1,24.8,14.1,34.9,14.6
		c-17.4-34.3-18-79.2,0.6-128.4c-0.7,14.7,18.1,38.4,33.4,45.6c-10.8-36.8,5-90.3,25.3-119c10.3-14.6,18.4-31.1,22.6-47.5
		c0.1-0.4,0.2-0.8,0.3-1.2c0.2-0.8,0.4-1.7,0.6-2.5c0.1-0.4,0.2-0.9,0.3-1.3c5.1-24.6,1.3-48.6-17.2-65.2
		c-39.3-35.4-89.8-11.2-122.9,14.5c-46.7,36.3-66,71.6-81.2,97.3c22.6-16.1,42.6-17,59.6-10.4c-37,22.6-47.8,40.5-61.4,85.9
		c17.5-11.1,27-12.3,43.8-5.2c-37.2,22.8-51.7,88.8-42.2,152l0,0c9.1-27.5,20.6-49.9,41.9-66.9C85,340.5,85,391.9,118.9,449.7
		L118.9,449.7z M0,219.4c45,7.2,38.4-39.5,74.5-70C19.8,169.8,29,201,0,219.4z M171.8,514c10.4,18.1,25.1,26.7,29.4,47.7
		c22-42.5-24.8-51.2-40.2-95.1C160.9,488.9,165.6,503.2,171.8,514L171.8,514z M211.5,421c10.9,18.2,28.9,32.9,58.3,35.9
		c-36.8-25-11.1-91.5-74.3-92.2C196.7,381.3,200.5,402.8,211.5,421L211.5,421z M221.1,327.1c4.7,8.3,11.4,15.3,20,21.4
		c-17.6-37.2,19-43-24.5-77.4C211.4,295.6,213.3,313.3,221.1,327.1L221.1,327.1z M267.8,327.7c39.5-53.4-11-80.2,7.2-140.8
		C231.6,264.8,277.1,284.9,267.8,327.7z M144.6,113.8c-1.5-6.3-1.9-13.2-1-20.5c2-16.4,10.4-34.1,24.9-48.7
		c14.6-14.6,32.3-22.9,48.6-24.9c16.4-2,31,2.2,41.3,12.5c10.2,10.3,14.4,24.9,12.5,41.3c-2,16.4-10.3,34.1-24.9,48.7
		c-7,7-14.8,12.6-22.7,16.7c7.7-25.8,3.7-50.2-11.7-59.6C192.5,67.5,163,82.9,144.6,113.8L144.6,113.8z"/>
</g>
</svg>
