<?xml version="1.0" encoding="utf-8"?>
<svg version="1.1" id="Layer_1" xmlns="http://www.w3.org/2000/svg" x="0px" y="0px"
	 viewBox="0 0 256.3 609.9" style="enable-background:new 0 0 256.3 609.9;" xml:space="preserve">
<g fill="black">
	<path d="M204.8,10c-1.8-1.6-4.2-3.4-6.5-4.9c-9.8-6-21.3-6.5-31-2.4c-19.4,8-33.3,29.5-43.7,55.5c-2.8,7.3-5.4,15-7.5,22.9
		l22.1,73.5l-28.3-41c-1.3,11.2-1.4,25.2-0.7,37.9l36.9,59.7l-36.9-31.5c-2.9,74-27.9,125.1-53.8,175.2c-4.3,8.3-7.3,17.6-8.8,27.7
		l46.5,11l-48,3.8c-0.4,10.5,0.4,21.6,2.4,33L102,414l-50.3,34.7c4.6,16.3,11.5,32.7,20.6,48.4c90.1-109.2,122.5-237.1,108.8-369.7
		l18.5-2.7c16,147.9-26.1,346.1-199.7,471l11.9,14.4c27.1-22.5,54.4-44.7,77.4-71.6c21.2,12.1,40.6,15.4,64.8,10.2l-25.7-24
		c22.8,1.6,44.5-1.9,66.3-11.6l-30.3-15c20.4-20.5,37.1-47.5,50.5-77.4c12.8-28.5,22.5-59.6,29.5-90.8l-42.9,20.9l47.8-45.8
		c5.3-30.6,7.7-60.4,7.3-87.1l-30.8,45.6l27.4-94.2c-4.6-45.4-11.1-79.8-19.1-105.5l-3.6,50L204.8,10L204.8,10z"/>
</g>
</svg>
