<?xml version="1.0" encoding="utf-8"?>
<!-- Generator: Adobe Illustrator 24.2.0, SVG Export Plug-In . SVG Version: 6.00 Build 0)  -->
<svg version="1.1" id="Layer_1" xmlns="http://www.w3.org/2000/svg" xmlns:xlink="http://www.w3.org/1999/xlink" x="0px" y="0px"
	 viewBox="0 0 512 512" style="enable-background:new 0 0 512 512;" xml:space="preserve">
<style type="text/css">
	.st0{fill:#FFA726;}
</style>
<g transform="translate(0,-1)">
	<g>
		<path class="st0" d="M153.1,254.8l82.5,11.1l0,0l19.5-65.8c5.2-17.4,23.5-27.4,41-22.2l15.3,4.6l16.4-122.1
			c1.2-8.6-4.9-16.6-13.5-17.8L184,25.1c-8.6-1.2-16.6,4.9-17.7,13.5L139.5,237C138.4,245.7,144.4,253.6,153.1,254.8z M237.9,220.6
			c-0.8,6-3.6,10.6-8.4,14c-4.8,3.4-10.2,4.7-16.3,3.8c-5.8-0.8-10.5-3.5-14.1-8s-5-9.8-4.2-15.7c0.8-5.8,3.5-10.5,8.3-14.2
			c4.7-3.7,10-5.1,15.8-4.3c6.1,0.8,11,3.7,14.6,8.4C237.3,209.5,238.7,214.8,237.9,220.6z M185.7,68.4c5.6-2.8,13.4-5.1,23.4-6.9
			c10-1.8,21.3-1.9,33.9-0.2c9.3,1.3,17.2,3.6,23.8,6.9c6.6,3.3,12,7.4,16,12c4.1,4.7,6.9,9.9,8.5,15.6s2,11.5,1.2,17.5
			c-1.5,11.1-7.3,21.1-17.3,30.1s-24.4,16.8-43.4,23.3l0.6,16.3l-24.8-3.4l-9.7-62.2l32-3.2l0.9,26.4c7.4-3.7,13-7.4,16.8-11
			c3.8-3.6,6.1-8.2,6.8-13.9c0.9-6.6-0.9-12.2-5.6-16.7c-4.6-4.5-11.8-7.4-21.6-8.8c-7.1-1-14.8-0.8-22.9,0.4
			c-8.2,1.2-15.7,3.2-22.7,6L185.7,68.4z"/>
		<path class="st0" d="M116.2,430.5l-49-184L28,263.3c-8,3.4-11.7,12.7-8.2,20.7L99,467.9l0,0c3.4,8,12.7,11.7,20.7,8.3l75.9-32.7
			l-39,10.4C139,458.6,120.9,448.1,116.2,430.5z"/>
		<path class="st0" d="M244.2,404.1l84.4-181.5c2.7-5.7,6.8-10.4,11.7-13.6h0.1h-0.1l0,0l-49.1-14.6c-8.3-2.5-17.1,2.3-19.6,10.6
			l-57,191.9c-2.5,8.4,2.3,17.1,10.6,19.6l16,4.8C240.7,415.6,241.6,409.7,244.2,404.1z"/>
		<path class="st0" d="M484.4,277.6l-119.2-55.4c-7.9-3.7-17.3-0.2-21,7.7l-84.4,181.5c-3.7,7.9-0.2,17.3,7.7,21l119.2,55.4l0,0
			c7.9,3.7,17.3,0.2,21-7.7L492,298.6C495.7,290.7,492.3,281.3,484.4,277.6z"/>
		<path class="st0" d="M241.3,421.3L241.3,421.3L241.3,421.3z"/>
		<path class="st0" d="M198.1,392.1l32.5-109.5l-79.8-10.8c-18.1-2.4-30.7-19.1-28.3-37.1l4.1-30.5l-34,9.1
			c-8.4,2.2-13.4,10.9-11.2,19.3L132.9,426l0,0c2.2,8.4,10.9,13.4,19.3,11.2l52.8-14C197.7,415,194.8,403.3,198.1,392.1z"/>
	</g>
</g>
</svg>
